<?xml version="1.0" encoding="UTF-8" standalone="no"?>
<svg
   xmlns:dc="http://purl.org/dc/elements/1.1/"
   xmlns:cc="http://creativecommons.org/ns#"
   xmlns:rdf="http://www.w3.org/1999/02/22-rdf-syntax-ns#"
   xmlns:svg="http://www.w3.org/2000/svg"
   xmlns="http://www.w3.org/2000/svg"
   id="svg8"
   version="1.1"
   viewBox="0 0 306.16073 306.16074"
   height="306.16074mm"
   width="306.16074mm">
  <defs
     id="defs2" />
  <metadata
     id="metadata5">
    <rdf:RDF>
      <cc:Work
         rdf:about="">
        <dc:format>image/svg+xml</dc:format>
        <dc:type
           rdf:resource="http://purl.org/dc/dcmitype/StillImage" />
        <dc:title></dc:title>
      </cc:Work>
    </rdf:RDF>
  </metadata>
  <g
     transform="translate(31.586159,-9.0028381)"
     id="layer1">
    <circle
       r="153.08037"
       cy="162.08321"
       cx="121.49421"
       id="path4725"
       style="fill:#4099e5;fill-opacity:1;stroke-width:0.21052308" />
    <ellipse
       transform="matrix(0.98975648,-0.14276595,0,1,0,0)"
       style="fill:#c8c8c8;stroke-width:0.23937276;fill-opacity:1"
       ry="34.210499"
       rx="121.78606"
       cy="232.52531"
       cx="121.24601"
       id="path17" />
    <path
       id="rect27"
       d="m 50.529752,82.279675 c 7.312232,-8.38817 40.20625,-0.288789 47.186572,6.669914 8.302506,8.276799 -7.67404,80.058431 -7.67404,80.058431 h -39.13612 c 0,0 -8.414859,-77.507103 -0.376412,-86.728345 z"
       style="fill:#505050;stroke-width:0.19427885;fill-opacity:1" />
    <path
       id="rect30-3"
       d="M 76.662415,168.81904 H 90.04229 l 7.561284,30.76257 -15.556854,27.69116 H 68.666845 L 84.19777,199.77121 Z"
       style="fill:#505050;fill-opacity:1;stroke-width:0.21222617" />
    <ellipse
       transform="matrix(1,0,-0.13595413,0.99071513,0,0)"
       ry="23.200592"
       rx="22.985178"
       cy="52.430775"
       cx="93.35865"
       id="path49"
       style="fill:#505050;stroke-width:0.26582026;fill-opacity:1" />
    <path
       id="rect30-3-5"
       d="m 50.906164,168.81903 h 13.379875 l 7.561285,30.76257 -15.556855,27.69116 H 42.910594 L 58.441519,199.7712 Z"
       style="fill:#505050;fill-opacity:1;stroke-width:0.21222617" />
    <path
       id="rect51"
       d="m -110.21567,100.72092 10.885074,0 c 0.16814,0 0.302383,0.13593 0.303502,0.3035 l 0.533522,79.88936 0.254137,46.6878 c 9.12e-4,0.16765 -1.027651,10.21133 -1.750757,15.32355 -0.02563,0.18117 -0.287818,0.43541 -0.484768,0.53746 -5.70374,2.95531 -14.2515,-0.90671 -14.2515,-0.90671 -0.92269,-0.0587 1.93409,-9.76757 1.93409,-9.76757 l 0.60626,-6.0946 1.28122,-39.67016 -2.09705,-53.14408 2.14545,-31.76466 c 0.19096,-2.827212 -10.08873,9.04455 -9.91683,8.87732 z"
       style="fill:#505050;fill-opacity:1;stroke-width:0.37137556"
       transform="matrix(0.4122099,-0.91108891,0.99409601,-0.10850405,0,0)" />
    <path
       id="path10"
       d="m 65.888528,293.65101 c 18.015334,11.55202 30.870684,-9.59623 43.718742,-32.5919 12.84806,-22.99567 4.77597,-38.79337 11.52304,-55.51247 21.72905,-53.84422 81.88643,-144.390678 82.39431,-147.89247 0.51149,-3.526788 -5.51365,-7.49503 -8.28239,-5.64804 -3.60056,2.401895 -50.2693,104.69992 -85.19714,149.01073 -10.70257,13.57769 -25.599078,13.8404 -37.364129,34.86095 -13.948553,24.95379 -25.993978,43.8581 -6.792433,57.7732 z"
       style="fill:#e57c40;stroke-width:0.29779032;fill-opacity:1" />
    <path
       id="rect51-7"
       d="m 79.464451,87.049275 18.214781,1.931597 c 0,0 19.431938,19.029788 26.309888,26.076478 9.5403,9.77437 38.83235,15.17476 39.23168,15.86332 0.39933,0.68856 -8.05359,14.20644 -8.76601,14.35397 C 153.74237,145.42217 118.3,130.74513 108.98806,121.56413 101.72589,114.40409 87.816547,99.803291 87.816547,99.803291 Z"
       style="fill:#505050;fill-opacity:1;stroke-width:0.19754151" />
    <path
       id="rect822"
       d="m 198.42949,37.976562 4.28155,-0.593792 c 0.17395,-0.02412 4.37931,-0.568672 4.32393,-0.402016 l -4.40056,13.243558 c -0.0647,0.19465 -2.40584,1.396193 -2.58121,1.38676 l -3.22513,-0.173488 c -0.17536,-0.0094 -0.40444,-0.243566 -0.39001,-0.357546 l 1.47974,-11.6867 c 0.0221,-0.174217 0.33773,-1.39265 0.51169,-1.416776 z"
       style="fill:#505050;fill-opacity:1;stroke-width:0.40975013"
       transform="rotate(7.8212569)" />
  </g>
</svg>
